<?xml version="1.0" encoding="utf-8"?>
<!-- Generator: Adobe Illustrator 16.0.0, SVG Export Plug-In . SVG Version: 6.00 Build 0)  -->
<!DOCTYPE svg PUBLIC "-//W3C//DTD SVG 1.1//EN" "http://www.w3.org/Graphics/SVG/1.1/DTD/svg11.dtd">
<svg version="1.1" id="Layer_1" xmlns="http://www.w3.org/2000/svg" xmlns:xlink="http://www.w3.org/1999/xlink" x="0px" y="0px"
	 width="323.598px" height="199.626px" viewBox="0 0 323.598 199.626" enable-background="new 0 0 323.598 199.626"
	 xml:space="preserve">
<polygon fill="#F7BC2F" points="161.8,0 134.338,27.457 162.583,55.706 161.015,57.271 132.769,29.031 120.217,41.582 
	161.802,83.163 188.474,56.488 161.015,29.031 162.583,27.457 190.04,54.917 203.384,41.582 "/>
<polygon fill="#F7BC2F" points="218.286,56.487 204.952,43.15 161.802,86.301 118.647,43.15 105.311,56.487 161.8,112.971 "/>
<path fill="#F7BC2F" d="M171.403,116.111l-8.817,8.797l-8.792-8.797H0v37.822h323.599v-37.822H171.403z M32.042,142.682
	c-1.242,0.912-2.891,1.445-4.692,1.445c-2.739-0.025-5.046-1.395-6.492-2.537c-0.558-0.455-0.634-1.293-0.203-1.852
	c0.457-0.557,1.293-0.633,1.852-0.176c1.115,0.912,3.043,1.977,4.843,1.951c1.268,0,2.409-0.379,3.17-0.938
	c0.761-0.558,1.09-1.191,1.09-1.826c0-0.33-0.076-0.559-0.228-0.811c-0.152-0.254-0.38-0.508-0.76-0.762
	c-0.736-0.482-1.979-0.912-3.475-1.191h-0.051c-1.191-0.229-2.307-0.533-3.271-0.99c-0.964-0.455-1.801-1.09-2.358-1.977
	c-0.38-0.609-0.583-1.32-0.583-2.08c0-1.521,0.861-2.84,2.028-3.703c1.192-0.861,2.739-1.343,4.388-1.343
	c2.433,0,4.234,1.19,5.528,2.028c0.583,0.404,0.761,1.217,0.354,1.801c-0.379,0.607-1.191,0.785-1.8,0.38
	c-1.293-0.862-2.536-1.624-4.082-1.624c-1.142,0-2.157,0.355-2.84,0.863c-0.686,0.508-0.965,1.064-0.965,1.598
	c0,0.305,0.051,0.508,0.178,0.709c0.127,0.204,0.355,0.432,0.685,0.661c0.658,0.456,1.8,0.862,3.17,1.114h0.051
	c1.293,0.254,2.484,0.584,3.499,1.066c1.04,0.506,1.952,1.166,2.536,2.104c0.381,0.609,0.609,1.371,0.609,2.156
	C34.223,140.373,33.309,141.769,32.042,142.682 M63.849,141.869c0.507,0.584,0.406,1.471-0.203,1.953
	c-0.253,0.229-0.557,0.33-0.887,0.33c-0.381,0-0.761-0.178-1.039-0.508l-5.479-7.178l-2.637,2.689v3.602
	c0,0.761-0.609,1.395-1.395,1.395c-0.786,0-1.396-0.634-1.396-1.395v-14.836c0-0.736,0.61-1.395,1.396-1.395
	c0.786,0,1.395,0.658,1.395,1.395v7.277l8.216-8.242c0.558-0.557,1.421-0.557,1.978,0c0.533,0.533,0.533,1.42,0,1.979l-5.578,5.555
	L63.849,141.869z M84.626,142.758c0,0.785-0.659,1.395-1.42,1.395c-0.786,0-1.395-0.609-1.395-1.395v-14.963
	c0-0.787,0.609-1.395,1.395-1.395c0.761,0,1.42,0.607,1.42,1.395V142.758z M111.739,144.152h-8.217h-0.05h-0.026
	c-0.786,0-1.394-0.634-1.394-1.395v-14.963c0-0.762,0.608-1.395,1.394-1.395s1.42,0.633,1.42,1.395v13.541h6.873
	c0.735,0,1.395,0.635,1.395,1.422C113.134,143.519,112.474,144.152,111.739,144.152 M138.702,144.152h-8.217h-0.051h-0.025
	c-0.786,0-1.394-0.634-1.394-1.395v-14.963c0-0.762,0.608-1.395,1.394-1.395s1.42,0.633,1.42,1.395v13.541h6.873
	c0.735,0,1.395,0.635,1.395,1.422C140.097,143.519,139.437,144.152,138.702,144.152 M321.953,152.289H162.654v-25.312l1.016-0.833
	l8.354-8.389h149.929V152.289z"/>
<path fill="#F7BC2F" d="M181.569,143.314c0.051,0.051,0.103,0.152,0.127,0.203c0,0.026,0.025,0.026,0.025,0.026
	c0.025,0.05,0.077,0.101,0.127,0.151c0,0.051,0.025,0.051,0.025,0.076c0.076,0.051,0.127,0.076,0.178,0.127h0.025
	c0.076,0.051,0.176,0.127,0.228,0.152h0.025c0,0,0.025,0,0.025,0.025c0.051,0,0.152,0.025,0.203,0.051h0.051
	c0.076,0.025,0.178,0.025,0.254,0.025s0.151,0,0.253-0.025h0.051c0.076-0.025,0.127-0.051,0.203-0.051
	c0.025-0.025,0.025-0.025,0.052-0.025c0.075-0.025,0.151-0.102,0.202-0.127l0.051-0.025c0.051-0.051,0.102-0.076,0.151-0.127
	c0.025-0.025,0.025-0.025,0.051-0.076s0.102-0.102,0.126-0.151c0.026,0,0.026,0,0.026-0.026c0.051-0.051,0.076-0.152,0.102-0.203
	l6.264-14.811c0.279-0.684-0.051-1.521-0.761-1.801c-0.685-0.303-1.521,0.025-1.825,0.736l-4.945,11.742l-4.945-11.742
	c-0.305-0.711-1.116-1.039-1.801-0.736c-0.734,0.279-1.065,1.117-0.761,1.801L181.569,143.314z"/>
<path fill="#F7BC2F" d="M204.399,144.076c0.152,0.051,0.305,0.076,0.481,0.076c0.559,0,1.091-0.33,1.319-0.889l1.242-3.297h6.163
	l1.242,3.297c0.203,0.559,0.735,0.889,1.293,0.889c0.178,0,0.355-0.025,0.482-0.076c0.735-0.279,1.091-1.092,0.837-1.826
	l-5.604-14.938c-0.229-0.559-0.761-0.912-1.345-0.887c-0.558-0.025-1.115,0.328-1.344,0.887l-5.604,14.938
	C203.309,142.984,203.664,143.797,204.399,144.076 M210.511,131.725l2.055,5.453h-4.108L210.511,131.725z"/>
<path fill="#F7BC2F" d="M235.015,144.152h0.025h0.051h8.217c0.735,0,1.396-0.635,1.396-1.396c0-0.786-0.66-1.421-1.396-1.421h-6.873
	v-13.541c0-0.762-0.634-1.395-1.42-1.395s-1.395,0.633-1.395,1.395v14.962C233.62,143.518,234.229,144.152,235.015,144.152"/>
<path fill="#F7BC2F" d="M267.431,144.152c4.058,0,7.329-3.297,7.329-7.33v-9.027c0-0.788-0.609-1.395-1.396-1.395
	s-1.42,0.606-1.42,1.395v9.027c0,2.486-2.003,4.514-4.514,4.514c-2.485,0-4.515-2.027-4.515-4.514v-9.027
	c0-0.788-0.659-1.395-1.42-1.395c-0.786,0-1.395,0.606-1.395,1.395v9.027C260.102,140.855,263.348,144.152,267.431,144.152"/>
<path fill="#F7BC2F" d="M293.532,144.152l0.025-0.025c0,0,0,0.025,0.051,0.025h8.217c0.735,0,1.396-0.635,1.396-1.396
	c0-0.786-0.66-1.421-1.396-1.421h-6.873v-4.666h5.909c0.761,0,1.395-0.633,1.395-1.42c0-0.734-0.634-1.395-1.395-1.395h-5.909
	v-4.642h6.873c0.735,0,1.396-0.634,1.396-1.419c0-0.788-0.66-1.395-1.396-1.395h-8.217h-0.051h-0.025
	c-0.786,0-1.395,0.606-1.395,1.395v14.962C292.138,143.518,292.746,144.152,293.532,144.152"/>
<line fill="none" stroke="#FFFFFF" stroke-miterlimit="10" x1="0.224" y1="168.936" x2="323.353" y2="168.936"/>
<g>
	<path fill="#FFFFFF" d="M80.679,192.275h-5.062l-1.021,2.708c-0.188,0.458-0.625,0.729-1.083,0.729
		c-0.146,0-0.271-0.021-0.396-0.062c-0.604-0.229-0.896-0.896-0.687-1.5l4.603-12.268c0.188-0.458,0.646-0.75,1.104-0.729
		c0.479-0.021,0.917,0.271,1.104,0.729l4.603,12.268c0.208,0.604-0.083,1.271-0.687,1.5c-0.104,0.042-0.25,0.062-0.396,0.062
		c-0.458,0-0.896-0.271-1.062-0.729L80.679,192.275z M79.825,189.984l-1.688-4.479l-1.687,4.479H79.825z"/>
	<path fill="#FFFFFF" d="M94.774,190.047h-2.562v4.52c0,0.625-0.521,1.146-1.167,1.146c-0.625,0-1.146-0.521-1.146-1.146v-12.289
		c0-0.646,0.521-1.146,1.146-1.146h0.021h3.708c2.479,0,4.478,2,4.478,4.479C99.252,188.047,97.252,190.047,94.774,190.047z
		 M92.212,187.734h2.562c1.208,0,2.145-0.958,2.166-2.124c-0.021-1.208-0.958-2.166-2.166-2.166h-2.562V187.734z"/>
	<path fill="#FFFFFF" d="M99.332,190.505c0.021-2.833,2.229-5.207,5.082-5.207c2.708,0,4.853,2.021,5.02,4.832
		c0,0.021,0,0.062,0,0.104c0,0.041,0,0.146-0.021,0.188c-0.062,0.5-0.5,0.833-1.083,0.833h-6.624
		c0.104,0.479,0.333,1.021,0.708,1.374c0.438,0.5,1.271,0.875,2,0.938c0.75,0.062,1.646-0.125,2.166-0.521
		c0.438-0.458,1.292-0.396,1.562-0.062c0.271,0.292,0.479,0.916,0,1.354c-1.021,0.938-2.25,1.375-3.729,1.375
		C101.56,195.691,99.353,193.338,99.332,190.505z M101.602,189.484h5.894c-0.208-0.833-1.271-2.062-3.083-2.208
		C102.643,187.359,101.769,188.63,101.602,189.484z"/>
	<path fill="#FFFFFF" d="M119.906,189.63v4.979c0,0.604-0.479,1.104-1.083,1.104c-0.583,0-1.104-0.5-1.104-1.104v-4.979
		c0-1.166-0.979-2.104-2.166-2.104c-1.167,0-2.083,0.938-2.083,2.104v4.979c0,0.062,0,0.125-0.042,0.208
		c-0.104,0.5-0.562,0.896-1.104,0.896c-0.625,0-1.104-0.5-1.104-1.104v-4.979v-3.229c0-0.604,0.479-1.104,1.104-1.104
		c0.438,0,0.833,0.25,1.021,0.646c0.625-0.396,1.396-0.646,2.208-0.646C117.969,185.298,119.906,187.276,119.906,189.63z"/>
	<path fill="#FFFFFF" d="M127.15,186.443c0,0.625-0.542,1.146-1.167,1.146h-0.521v5.812c0.646,0,1.146,0.521,1.146,1.166
		s-0.5,1.146-1.146,1.146c-1.271,0-2.312-1.041-2.312-2.312v-5.812h-0.604c-0.646,0-1.146-0.521-1.146-1.146
		c0-0.646,0.5-1.146,1.146-1.146h0.604v-3.021c0-0.646,0.521-1.146,1.166-1.146c0.646,0,1.146,0.5,1.146,1.146v3.021h0.521
		C126.609,185.298,127.15,185.798,127.15,186.443z"/>
	<path fill="#FFFFFF" d="M137.438,190.525v4.083c0,0.604-0.5,1.104-1.104,1.104c-0.542,0-0.958-0.396-1.083-0.896
		c-0.792,0.562-1.729,0.896-2.771,0.896c-1.416,0-2.645-0.583-3.541-1.521c-0.896-0.958-1.417-2.249-1.417-3.666
		c0-1.437,0.521-2.729,1.417-3.665c0.896-0.959,2.125-1.562,3.541-1.562c1.042,0,1.979,0.354,2.771,0.916
		c0.125-0.521,0.542-0.916,1.083-0.916c0.604,0,1.104,0.5,1.104,1.125V190.525z M135.23,190.525c0-0.874-0.312-1.624-0.812-2.146
		c-0.5-0.562-1.208-0.854-1.937-0.854c-0.75,0-1.458,0.292-1.937,0.854c-0.5,0.521-0.792,1.271-0.792,2.146
		c0,0.854,0.292,1.604,0.792,2.146c0.479,0.521,1.188,0.812,1.937,0.812c0.729,0,1.438-0.292,1.937-0.812
		C134.917,192.13,135.23,191.38,135.23,190.525z"/>
	<path fill="#FFFFFF" d="M141.579,181.132c0.646,0,1.166,0.521,1.166,1.146v12.289c0,0.625-0.521,1.146-1.166,1.146
		c-0.625,0-1.146-0.521-1.146-1.146v-12.289C140.433,181.653,140.954,181.132,141.579,181.132z"/>
	<path fill="#FFFFFF" d="M144.889,194.191c-0.896-0.916-1.437-2.208-1.437-3.666c0-1.416,0.542-2.645,1.437-3.645
		c0.938-0.979,2.146-1.583,3.583-1.583c1.375,0,2.625,0.604,3.479,1.583c0.937,1,1.458,2.229,1.458,3.645
		c0,1.458-0.521,2.75-1.458,3.666c-0.854,0.979-2.104,1.583-3.479,1.583C147.034,195.774,145.826,195.17,144.889,194.191z
		 M145.722,190.525c0,0.896,0.271,1.625,0.75,2.208c0.521,0.5,1.208,0.771,2,0.771c0.729,0,1.396-0.271,1.916-0.771
		c0.521-0.583,0.812-1.312,0.812-2.208c0-0.854-0.292-1.604-0.812-2.166c-0.521-0.458-1.187-0.791-1.916-0.791
		c-0.792,0-1.479,0.333-2,0.791C145.993,188.922,145.722,189.672,145.722,190.525z"/>
	<path fill="#FFFFFF" d="M164.734,190.567v3.874c0,2.729-2.229,4.999-4.999,4.999c-0.771,0-1.542-0.188-2.187-0.521
		c-0.542-0.25-0.792-0.938-0.5-1.5c0.271-0.562,0.917-0.771,1.5-0.521c0.354,0.188,0.75,0.291,1.188,0.291
		c1.354,0,2.458-0.958,2.729-2.229c-0.75,0.521-1.708,0.833-2.729,0.833c-1.375,0-2.645-0.604-3.541-1.583
		c-0.896-0.916-1.458-2.207-1.458-3.665c0-1.438,0.562-2.729,1.458-3.708c0.896-0.938,2.167-1.541,3.541-1.541
		c1.083,0,2.041,0.333,2.791,0.875c0.104-0.5,0.562-0.875,1.104-0.875c0.625,0,1.104,0.5,1.104,1.104v4.146V190.567z
		 M162.506,190.547c0-0.833-0.334-1.625-0.792-2.125c-0.541-0.583-1.187-0.896-1.979-0.896c-0.729,0-1.417,0.312-1.916,0.896
		c-0.5,0.5-0.833,1.292-0.833,2.125c0,0.874,0.333,1.666,0.833,2.145c0.5,0.562,1.187,0.854,1.916,0.854
		c0.792,0,1.438-0.292,1.979-0.854C162.172,192.213,162.506,191.421,162.506,190.547z"/>
	<path fill="#FFFFFF" d="M171.644,190.525c0-2.895,2.416-5.207,5.29-5.228c1.25,0,2.416,0.458,3.312,1.146
		c0.479,0.375,0.562,1.083,0.229,1.541c-0.416,0.5-1.083,0.583-1.562,0.209c-0.542-0.396-1.208-0.667-1.979-0.667
		c-1.687,0-3.082,1.396-3.082,2.999c0,1.604,1.396,2.979,3.082,2.979c0.75,0,1.438-0.271,1.979-0.666
		c0.458-0.354,1.146-0.271,1.562,0.229c0.333,0.459,0.25,1.125-0.229,1.542c-0.896,0.646-2.062,1.104-3.312,1.104
		C174.06,195.712,171.644,193.379,171.644,190.525z"/>
	<path fill="#FFFFFF" d="M183.366,194.191c-0.896-0.916-1.438-2.208-1.438-3.666c0-1.416,0.542-2.645,1.438-3.645
		c0.937-0.979,2.145-1.583,3.582-1.583c1.375,0,2.624,0.604,3.479,1.583c0.938,1,1.458,2.229,1.458,3.645
		c0,1.458-0.521,2.75-1.458,3.666c-0.854,0.979-2.104,1.583-3.479,1.583C185.511,195.774,184.303,195.17,183.366,194.191z
		 M184.199,190.525c0,0.896,0.271,1.625,0.75,2.208c0.521,0.5,1.208,0.771,1.999,0.771c0.729,0,1.396-0.271,1.916-0.771
		c0.521-0.583,0.812-1.312,0.812-2.208c0-0.854-0.292-1.604-0.812-2.166c-0.521-0.458-1.187-0.791-1.916-0.791
		c-0.791,0-1.479,0.333-1.999,0.791C184.47,188.922,184.199,189.672,184.199,190.525z"/>
	<path fill="#FFFFFF" d="M202.587,189.609c0,0.021,0,0.042,0,0.062v4.937c0,0.604-0.5,1.104-1.104,1.104
		c-0.583,0-1.124-0.5-1.124-1.104v-4.937c0-0.021,0-0.042,0-0.062c-0.021-1.146-0.979-2.083-2.146-2.083
		c-1.146,0-2.104,0.958-2.104,2.146v4.937c0,0.041-0.021,0.104-0.021,0.146c0,0.021,0,0.062,0,0.062
		c-0.021,0.042-0.021,0.083-0.062,0.125c0,0.021,0,0.062,0,0.104c-0.188,0.374-0.604,0.666-1.041,0.666
		c-0.083,0-0.146-0.021-0.208-0.021c-0.5-0.125-0.896-0.542-0.896-1.083v-4.937c0-0.021,0-0.021,0-0.021v-3.229
		c0-0.646,0.499-1.125,1.104-1.125c0.438,0,0.833,0.229,1,0.625c0.666-0.396,1.437-0.625,2.229-0.625
		c1.312,0,2.479,0.541,3.27,1.438c0.771-0.896,1.958-1.438,3.271-1.438c2.396,0,4.332,1.958,4.332,4.374v4.937
		c0,0.604-0.5,1.104-1.104,1.104c-0.604,0-1.125-0.5-1.125-1.104v-4.937c0-1.188-0.958-2.146-2.104-2.146
		C203.565,187.526,202.628,188.464,202.587,189.609z"/>
	<path fill="#FFFFFF" d="M212.162,198.503v-7.956c0,0,0,0,0-0.021v-4.124c0-0.604,0.499-1.104,1.104-1.104
		c0.583,0,1.062,0.396,1.146,0.854c0.771-0.499,1.771-0.854,2.833-0.854c2.77,0,5.04,2.374,5.04,5.228s-2.271,5.166-5.04,5.166
		c-1.042,0-2.042-0.312-2.791-0.854v3.666c0,0.583-0.521,1.125-1.188,1.125C212.661,199.628,212.162,199.086,212.162,198.503z
		 M214.453,190.525c0,0.812,0.271,1.604,0.812,2.083c0.521,0.583,1.208,0.875,1.979,0.875c0.708,0,1.416-0.292,1.957-0.875
		c0.479-0.479,0.812-1.271,0.812-2.083c0-0.812-0.333-1.562-0.812-2.104c-0.541-0.562-1.249-0.854-1.957-0.854
		c-0.771,0-1.458,0.291-1.979,0.854C214.724,188.964,214.453,189.714,214.453,190.525z"/>
	<path fill="#FFFFFF" d="M233.193,190.525v4.083c0,0.604-0.5,1.104-1.104,1.104c-0.542,0-0.958-0.396-1.083-0.896
		c-0.792,0.562-1.729,0.896-2.771,0.896c-1.416,0-2.645-0.583-3.541-1.521c-0.896-0.958-1.416-2.249-1.416-3.666
		c0-1.437,0.521-2.729,1.416-3.665c0.896-0.959,2.125-1.562,3.541-1.562c1.042,0,1.979,0.354,2.771,0.916
		c0.125-0.521,0.541-0.916,1.083-0.916c0.604,0,1.104,0.5,1.104,1.125V190.525z M230.986,190.525c0-0.874-0.312-1.624-0.812-2.146
		c-0.5-0.562-1.208-0.854-1.938-0.854c-0.75,0-1.458,0.292-1.937,0.854c-0.5,0.521-0.792,1.271-0.792,2.146
		c0,0.854,0.292,1.604,0.792,2.146c0.479,0.521,1.187,0.812,1.937,0.812c0.729,0,1.438-0.292,1.938-0.812
		C230.674,192.13,230.986,191.38,230.986,190.525z"/>
	<path fill="#FFFFFF" d="M244.229,189.63v4.979c0,0.604-0.479,1.104-1.083,1.104c-0.583,0-1.104-0.5-1.104-1.104v-4.979
		c0-1.166-0.979-2.104-2.166-2.104c-1.167,0-2.083,0.938-2.083,2.104v4.979c0,0.062,0,0.125-0.042,0.208
		c-0.104,0.5-0.562,0.896-1.104,0.896c-0.625,0-1.104-0.5-1.104-1.104v-4.979v-3.229c0-0.604,0.479-1.104,1.104-1.104
		c0.438,0,0.833,0.25,1.021,0.646c0.625-0.396,1.396-0.646,2.208-0.646C242.293,185.298,244.229,187.276,244.229,189.63z"/>
	<path fill="#FFFFFF" d="M254.328,186.401v4.916v2.957c0,2.791-2.208,4.979-4.978,4.979c-0.75,0-1.521-0.209-2.146-0.521
		c-0.583-0.25-0.791-0.896-0.542-1.479c0.271-0.5,0.979-0.729,1.479-0.458c0.396,0.188,0.791,0.292,1.208,0.292
		c1.229-0.021,2.271-0.812,2.604-1.896c-0.583,0.333-1.292,0.5-1.979,0.5c-2.396,0-4.354-1.979-4.354-4.374v-4.916
		c0-0.625,0.521-1.104,1.083-1.104c0.646,0,1.104,0.479,1.104,1.104v4.916c0,1.208,0.979,2.124,2.166,2.124
		c1.187,0,2.145-0.916,2.145-2.124v-4.916c0-0.625,0.459-1.104,1.083-1.104C253.808,185.298,254.328,185.776,254.328,186.401z"/>
</g>
</svg>
